# xmcd
#
# Track frame offsets: 
#        150
#        14107
#        27055
#        41173
#        52515
#        64828
#        75936
#        92303
#        107596
#        120444
#        137782
#        151209
#        168725
#        181785
#        195975
#        214455
#        233166
#        257551
#
# Disc length: 3726 seconds
#
# Revision: 0
# Processed by: cddbd v1.5.2PL0 Copyright (c) Steve Scherf et al.
# Submitted via: ExactAudioCopy v0.95b3
#
DISCID=de0e8c12
DTITLE=Johnny Mathis  - Gold A 50th Anniversary Celebration  FLAC
DYEAR=1900
DGENRE=
TTITLE0=Chances Are
TTITLE1=Wonderful! Wonderful!
TTITLE2=It's Not For Me To Say
TTITLE3=The Twelfth Of Never
TTITLE4=When Sunny Gets Blue
TTITLE5=Wild Is The Wind
TTITLE6=Misty
TTITLE7=Small World
TTITLE8=A Certain Smile
TTITLE9=Maria
TTITLE10=What'll I Do
TTITLE11=One God
TTITLE12=Deep River
TTITLE13=True Love
TTITLE14=So Many Stars
TTITLE15=In A Sentimental Mood
TTITLE16=The Shadow Of Your Smile
TTITLE17=Over The Rainbow
EXTD=
EXTT0=
EXTT1=
EXTT2=
EXTT3=
EXTT4=
EXTT5=
EXTT6=
EXTT7=
EXTT8=
EXTT9=
EXTT10=
EXTT11=
EXTT12=
EXTT13=
EXTT14=
EXTT15=
EXTT16=
EXTT17=
PLAYORDER=
